# xmcd
#
# Track frame offsets: 
#        150
#        16456
#        27323
#        39715
#        58946
#        70666
#        82344
#        98562
#        111687
#        124401
#        138176
#        156632
#        178868
#        194272
#        225613
#        244728
#        258629
#        281591
#
# Disc length: 3957 seconds
#
# Revision: 0
# Processed by: cddbd v1.5.2PL0 Copyright (c) Steve Scherf et al.
# Submitted via: ExactAudioCopy v0.99pb5
#
DISCID=140f7312
DTITLE=Nina Simone - A collection of her finest moments
DYEAR=2005
DGENRE=Blues
TTITLE0=My Baby Just Cares For Me
TTITLE1=I Loves You Porgy
TTITLE2=Don't Let My Be Misunderstood
TTITLE3=Nobody
TTITLE4=See Line Woman
TTITLE5=I Put A Spell On You
TTITLE6=Ne Me Quitte Pas
TTITLE7=Feeling Good
TTITLE8=Tomorrow Is My Turn
TTITLE9=The Other Woman
TTITLE10=Love Me Or Leave Me
TTITLE11=The Ballad Of Hollis Brown
TTITLE12=Black Is The Color Of My True Love's Hair
TTITLE13=Wild Is The Wind
TTITLE14=Lilac Wine
TTITLE15=Work Song
TTITLE16=Funkier Than a Mosquito Tweeter
TTITLE17=Let It Be Me
EXTD=
EXTT0=
EXTT1=
EXTT2=
EXTT3=
EXTT4=
EXTT5=
EXTT6=
EXTT7=
EXTT8=
EXTT9=
EXTT10=
EXTT11=
EXTT12=
EXTT13=
EXTT14=
EXTT15=
EXTT16=
EXTT17=
PLAYORDER=
